<mxfile host="app.diagrams.net" modified="2024-05-23T23:25:18.899Z" agent="Mozilla/5.0 (Windows NT 10.0; Win64; x64) AppleWebKit/537.36 (KHTML, like Gecko) Chrome/125.0.0.0 Safari/537.36" etag="WQxYpddswQCJq4bryyGw" version="24.4.6" type="github">
  <diagram name="Page-1" id="g0ncL3MHdH6hdmwCsweq">
    <mxGraphModel dx="2514" dy="1337" grid="1" gridSize="10" guides="1" tooltips="1" connect="1" arrows="1" fold="1" page="1" pageScale="1" pageWidth="850" pageHeight="1100" math="0" shadow="0">
      <root>
        <mxCell id="0" />
        <mxCell id="1" parent="0" />
        <mxCell id="3J8pXX3iUId4LDgB8-MB-4" value="" style="edgeStyle=orthogonalEdgeStyle;rounded=0;orthogonalLoop=1;jettySize=auto;html=1;" edge="1" parent="1" source="3J8pXX3iUId4LDgB8-MB-1" target="3J8pXX3iUId4LDgB8-MB-3">
          <mxGeometry relative="1" as="geometry" />
        </mxCell>
        <mxCell id="3J8pXX3iUId4LDgB8-MB-1" value="Bắt đầu" style="ellipse;whiteSpace=wrap;html=1;" vertex="1" parent="1">
          <mxGeometry x="130" y="130" width="100" height="50" as="geometry" />
        </mxCell>
        <mxCell id="3J8pXX3iUId4LDgB8-MB-2" value="jump to app_STM32" style="text;html=1;align=center;verticalAlign=middle;whiteSpace=wrap;rounded=0;" vertex="1" parent="1">
          <mxGeometry x="150" y="90" width="60" height="30" as="geometry" />
        </mxCell>
        <mxCell id="3J8pXX3iUId4LDgB8-MB-6" value="" style="edgeStyle=orthogonalEdgeStyle;rounded=0;orthogonalLoop=1;jettySize=auto;html=1;" edge="1" parent="1" source="3J8pXX3iUId4LDgB8-MB-3" target="3J8pXX3iUId4LDgB8-MB-5">
          <mxGeometry relative="1" as="geometry" />
        </mxCell>
        <mxCell id="3J8pXX3iUId4LDgB8-MB-3" value="Lấy địa chỉ của Firmware cần nhảy đến" style="whiteSpace=wrap;html=1;" vertex="1" parent="1">
          <mxGeometry x="120" y="220" width="120" height="60" as="geometry" />
        </mxCell>
        <mxCell id="3J8pXX3iUId4LDgB8-MB-8" value="" style="edgeStyle=orthogonalEdgeStyle;rounded=0;orthogonalLoop=1;jettySize=auto;html=1;" edge="1" parent="1" source="3J8pXX3iUId4LDgB8-MB-5" target="3J8pXX3iUId4LDgB8-MB-7">
          <mxGeometry relative="1" as="geometry" />
        </mxCell>
        <mxCell id="3J8pXX3iUId4LDgB8-MB-5" value="Hủy kích hoạt các ngắt" style="whiteSpace=wrap;html=1;" vertex="1" parent="1">
          <mxGeometry x="120" y="320" width="120" height="60" as="geometry" />
        </mxCell>
        <mxCell id="3J8pXX3iUId4LDgB8-MB-11" value="" style="edgeStyle=orthogonalEdgeStyle;rounded=0;orthogonalLoop=1;jettySize=auto;html=1;" edge="1" parent="1" source="3J8pXX3iUId4LDgB8-MB-7" target="3J8pXX3iUId4LDgB8-MB-10">
          <mxGeometry relative="1" as="geometry" />
        </mxCell>
        <mxCell id="3J8pXX3iUId4LDgB8-MB-7" value="set giá trị cho MSP và thanh ghi&lt;div&gt;SCB_VTOR&amp;nbsp;&lt;/div&gt;" style="whiteSpace=wrap;html=1;" vertex="1" parent="1">
          <mxGeometry x="120" y="420" width="120" height="60" as="geometry" />
        </mxCell>
        <mxCell id="3J8pXX3iUId4LDgB8-MB-13" value="" style="edgeStyle=orthogonalEdgeStyle;rounded=0;orthogonalLoop=1;jettySize=auto;html=1;" edge="1" parent="1" source="3J8pXX3iUId4LDgB8-MB-10" target="3J8pXX3iUId4LDgB8-MB-12">
          <mxGeometry relative="1" as="geometry" />
        </mxCell>
        <mxCell id="3J8pXX3iUId4LDgB8-MB-10" value="Reset lại chương trình" style="whiteSpace=wrap;html=1;" vertex="1" parent="1">
          <mxGeometry x="120" y="520" width="120" height="60" as="geometry" />
        </mxCell>
        <mxCell id="3J8pXX3iUId4LDgB8-MB-12" value="Kết thúc" style="ellipse;whiteSpace=wrap;html=1;" vertex="1" parent="1">
          <mxGeometry x="130" y="620" width="100" height="50" as="geometry" />
        </mxCell>
        <mxCell id="3J8pXX3iUId4LDgB8-MB-17" value="" style="edgeStyle=orthogonalEdgeStyle;rounded=0;orthogonalLoop=1;jettySize=auto;html=1;" edge="1" parent="1" source="3J8pXX3iUId4LDgB8-MB-14" target="3J8pXX3iUId4LDgB8-MB-16">
          <mxGeometry relative="1" as="geometry" />
        </mxCell>
        <mxCell id="3J8pXX3iUId4LDgB8-MB-14" value="Bắt đầu" style="ellipse;whiteSpace=wrap;html=1;" vertex="1" parent="1">
          <mxGeometry x="380" y="130" width="100" height="50" as="geometry" />
        </mxCell>
        <mxCell id="3J8pXX3iUId4LDgB8-MB-15" value="flash firmware_STM32" style="text;html=1;align=center;verticalAlign=middle;whiteSpace=wrap;rounded=0;" vertex="1" parent="1">
          <mxGeometry x="395" y="90" width="60" height="30" as="geometry" />
        </mxCell>
        <mxCell id="3J8pXX3iUId4LDgB8-MB-16" value="" style="whiteSpace=wrap;html=1;" vertex="1" parent="1">
          <mxGeometry x="370" y="220" width="120" height="60" as="geometry" />
        </mxCell>
        <mxCell id="3J8pXX3iUId4LDgB8-MB-18" value="" style="edgeStyle=orthogonalEdgeStyle;rounded=0;orthogonalLoop=1;jettySize=auto;html=1;" edge="1" parent="1" source="3J8pXX3iUId4LDgB8-MB-19" target="3J8pXX3iUId4LDgB8-MB-21">
          <mxGeometry relative="1" as="geometry" />
        </mxCell>
        <mxCell id="3J8pXX3iUId4LDgB8-MB-19" value="Bắt đầu" style="ellipse;whiteSpace=wrap;html=1;" vertex="1" parent="1">
          <mxGeometry x="640" y="130" width="100" height="50" as="geometry" />
        </mxCell>
        <mxCell id="3J8pXX3iUId4LDgB8-MB-20" value="get firmware via CAN_STM32" style="text;html=1;align=center;verticalAlign=middle;whiteSpace=wrap;rounded=0;" vertex="1" parent="1">
          <mxGeometry x="632.5" y="90" width="115" height="30" as="geometry" />
        </mxCell>
        <mxCell id="3J8pXX3iUId4LDgB8-MB-21" value="" style="whiteSpace=wrap;html=1;" vertex="1" parent="1">
          <mxGeometry x="630" y="220" width="120" height="60" as="geometry" />
        </mxCell>
      </root>
    </mxGraphModel>
  </diagram>
</mxfile>
